<?xml version="1.0" encoding="UTF-8" standalone="no"?><!-- Generator: Gravit.io --><svg xmlns="http://www.w3.org/2000/svg" xmlns:xlink="http://www.w3.org/1999/xlink" style="isolation:isolate" viewBox="0 0 3840 2160" width="3840pt" height="2160pt"><defs><clipPath id="_clipPath_G7yk9LAJ3BN3JIc621DzWXTziKH0Ln5z"><rect width="3840" height="2160"/></clipPath></defs><g clip-path="url(#_clipPath_G7yk9LAJ3BN3JIc621DzWXTziKH0Ln5z)"><radialGradient id="_rgradient_0" fx="0.5" fy="0.5" cx="0.5" cy="0.5" r="0.5" gradientTransform="matrix(3840,0,0,2160,0,0)" gradientUnits="userSpaceOnUse"><stop offset="0%" stop-opacity="1" style="stop-color:rgb(60,40,39)"/><stop offset="98.75%" stop-opacity="1" style="stop-color:rgb(0,0,0)"/></radialGradient><rect x="0" y="0" width="3840" height="2160" transform="matrix(1,0,0,1,0,0)" fill="url(#_rgradient_0)"/><g><g><path d=" M 2082.754 1013.902 L 1878.621 1132.524 L 1672.756 1013.929 L 1877.257 895.253 L 2082.754 1013.902 Z " fill="rgb(172,184,191)"/><g><g><path d=" M 1672.66 867.873 L 1876.67 986.426 L 2082.781 867.654 L 1878.021 749.306 L 1672.66 867.873 Z " fill="rgb(112,112,112)"/><path d=" M 1672.66 867.873 L 1672.728 932.688 L 1876.725 1051.242 L 1876.67 986.426 L 1672.66 867.873 Z " fill="rgb(229,229,228)"/><path d=" M 1876.67 986.426 L 1876.725 1051.242 L 2082.849 932.47 L 2082.781 867.654 L 1876.67 986.426 Z " fill="rgb(184,185,185)"/><path d=" M 1859.071 991.01 L 1859.071 1030.191 L 1849.03 1024.407 L 1849.03 985.253 L 1859.071 991.01 Z " fill="rgb(184,185,185)"/><path d=" M 1836.684 978.063 L 1845.647 983.343 L 1845.647 1022.497 L 1836.766 1017.244 L 1836.684 978.063 Z " fill="rgb(184,185,185)"/><path d=" M 1704.624 914.462 C 1701.978 912.893 1699.795 914.094 1699.74 917.19 C 1699.879 920.578 1701.628 923.696 1704.447 925.58 C 1707.094 927.149 1709.277 925.935 1709.331 922.852 C 1709.195 919.463 1707.445 916.345 1704.624 914.462 L 1704.624 914.462 Z " fill="rgb(184,185,185)"/><path d=" M 1686.112 903.862 C 1683.465 902.293 1681.282 903.507 1681.228 906.59 C 1681.364 909.979 1683.114 913.097 1685.934 914.98 C 1688.581 916.563 1690.764 915.349 1690.818 912.252 C 1690.675 908.865 1688.927 905.749 1686.112 903.862 L 1686.112 903.862 Z " fill="rgb(184,185,185)"/></g></g><g><path d=" M 1806.316 1163.328 L 1600.573 1282.891 L 1393.084 1163.369 L 1599.209 1043.766 L 1806.316 1163.328 Z " fill="rgb(172,184,191)"/><path d=" M 1602.36 1189.522 L 1602.292 1203.697 L 1602.36 1189.522 L 1602.36 1189.522 Z " fill-rule="evenodd" fill="none"/><path d=" M 1602.36 1189.522 L 1602.36 1189.522 L 1602.36 1189.522 L 1602.36 1189.522 L 1806.302 1070.996 L 1600.996 952.47 L 1396.29 1070.778 L 1602.36 1189.522 Z " fill="rgb(238,0,0)"/><path d=" M 1806.302 1070.996 L 1806.302 1070.996 L 1602.36 1189.522 L 1602.36 1189.522 L 1602.292 1203.697 L 1806.234 1085.171 L 1806.302 1070.996 L 1806.302 1070.996 L 1806.302 1070.996 Z " fill="rgb(163,0,0)"/><path d=" M 1602.36 1189.522 L 1396.29 1070.778 L 1396.236 1084.952 L 1602.292 1203.697 L 1602.36 1189.522 L 1602.36 1189.522 Z " fill="rgb(204,0,0)"/><path d=" M 1561.651 992.538 L 1602.838 969.005 L 1644.748 993.275 L 1602.879 1016.931 L 1561.651 992.538 Z " fill="rgb(172,184,191)"/><path d=" M 1630.505 1031.16 L 1671.691 1007.627 L 1713.588 1031.897 L 1671.732 1055.553 L 1630.505 1031.16 Z " fill="rgb(172,184,191)"/><path d=" M 1492.524 1031.16 L 1533.711 1007.627 L 1575.621 1031.897 L 1533.752 1055.553 L 1492.524 1031.16 Z " fill="rgb(172,184,191)"/><path d=" M 1561.651 1071.296 L 1602.838 1047.763 L 1644.748 1072.033 L 1602.879 1095.689 L 1561.651 1071.296 Z " fill="rgb(172,184,191)"/><path d=" M 1425.062 1072.96 L 1466.249 1049.427 L 1508.159 1073.697 L 1466.29 1097.353 L 1425.062 1072.96 Z " fill="rgb(172,184,191)"/><path d=" M 1698.922 1072.96 L 1740.095 1049.427 L 1782.005 1073.697 L 1740.15 1097.353 L 1698.922 1072.96 Z " fill="rgb(172,184,191)"/><path d=" M 1630.505 1113.124 L 1671.691 1089.591 L 1713.588 1113.861 L 1671.732 1137.517 L 1630.505 1113.124 Z " fill="rgb(172,184,191)"/><path d=" M 1492.524 1113.124 L 1533.711 1089.591 L 1575.621 1113.861 L 1533.752 1137.517 L 1492.524 1113.124 Z " fill="rgb(172,184,191)"/><path d=" M 1561.651 1149.959 L 1602.838 1126.425 L 1644.748 1150.695 L 1602.879 1174.352 L 1561.651 1149.959 Z " fill="rgb(172,184,191)"/><g><g><g opacity="0.75"><path d=" M 1644.72 987.654 L 1644.625 939.114 L 1602.797 915.089 L 1602.797 963.384 L 1644.72 987.654 Z " fill="rgb(235,236,236)"/></g><g opacity="0.75"><path d=" M 1561.46 939.155 L 1561.378 987.258 L 1602.838 963.398 L 1602.797 915.171 L 1561.46 939.155 Z " fill="rgb(209,209,209)"/></g><g opacity="0.75"><path d=" M 1561.651 986.931 L 1602.838 963.398 L 1644.748 987.668 L 1602.879 1011.324 L 1561.651 986.931 Z " fill="rgb(220,220,220)"/></g><path d=" M 1562.592 939.714 L 1601.378 962.02 L 1601.61 1009.264 L 1562.551 986.658 L 1562.551 941.269 L 1562.592 939.714 Z  M 1561.296 939.1 L 1561.296 987.381 L 1602.892 1011.446 L 1602.647 961.297 L 1563.888 939.114 L 1561.296 939.1 Z " fill="rgb(255,255,255)"/><path d=" M 1602.879 916.467 L 1642.087 939.1 L 1602.674 961.324 L 1563.861 939.087 L 1602.879 916.467 L 1602.879 916.467 Z  M 1602.879 915.008 L 1561.337 939.1 L 1602.674 962.77 L 1644.625 939.114 L 1602.879 915.008 Z " fill="rgb(255,255,255)"/></g></g><g><g><g opacity="0.75"><path d=" M 1713.56 1026.262 L 1713.465 977.736 L 1671.651 953.711 L 1671.651 1002.006 L 1713.56 1026.262 Z " fill="rgb(235,236,236)"/></g><g opacity="0.75"><path d=" M 1630.3 977.777 L 1630.218 1025.867 L 1671.691 1002.019 L 1671.651 953.793 L 1630.3 977.777 Z " fill="rgb(209,209,209)"/></g><g opacity="0.75"><path d=" M 1630.505 1025.553 L 1671.691 1002.019 L 1713.588 1026.289 L 1671.732 1049.946 L 1630.505 1025.553 Z " fill="rgb(220,220,220)"/></g><path d=" M 1631.446 978.322 L 1670.218 1000.642 L 1670.464 1047.872 L 1631.392 1025.266 L 1631.392 979.878 L 1631.446 978.322 Z  M 1630.136 977.722 L 1630.136 1026.003 L 1671.732 1050.068 L 1671.473 999.905 L 1632.728 977.722 L 1630.136 977.722 Z " fill="rgb(255,255,255)"/><path d=" M 1671.732 955.076 L 1710.955 977.722 L 1671.528 999.932 L 1632.701 977.709 L 1671.732 955.076 L 1671.732 955.076 Z  M 1671.732 953.629 L 1630.191 977.709 L 1671.514 1001.378 L 1713.465 977.736 L 1671.732 953.629 L 1671.732 953.629 Z " fill="rgb(255,255,255)"/></g></g><g><g><g opacity="0.75"><path d=" M 1575.594 1026.262 L 1575.498 977.736 L 1533.67 953.711 L 1533.67 1002.006 L 1575.594 1026.262 Z " fill="rgb(235,236,236)"/></g><g opacity="0.75"><path d=" M 1492.32 977.777 L 1492.238 1025.867 L 1533.711 1002.019 L 1533.67 953.793 L 1492.32 977.777 Z " fill="rgb(209,209,209)"/></g><g opacity="0.75"><path d=" M 1492.524 1025.553 L 1533.711 1002.019 L 1575.621 1026.289 L 1533.752 1049.946 L 1492.524 1025.553 Z " fill="rgb(220,220,220)"/></g><path d=" M 1493.466 978.322 L 1532.238 1000.642 L 1532.47 1047.872 L 1493.411 1025.266 L 1493.411 979.878 L 1493.466 978.322 Z  M 1492.156 977.722 L 1492.156 1026.003 L 1533.752 1050.068 L 1533.507 999.905 L 1494.748 977.722 L 1492.156 977.722 Z " fill="rgb(255,255,255)"/><path d=" M 1533.752 955.076 L 1572.961 977.722 L 1533.602 999.932 L 1494.735 977.709 L 1533.752 955.076 L 1533.752 955.076 Z  M 1533.752 953.629 L 1492.211 977.709 L 1533.602 1001.378 L 1575.553 977.736 L 1533.807 953.629 L 1533.752 953.629 Z " fill="rgb(255,255,255)"/></g></g><g><g><g opacity="0.75"><path d=" M 1644.72 1066.412 L 1644.625 1017.886 L 1602.797 993.848 L 1602.797 1042.142 L 1644.72 1066.412 Z " fill="rgb(235,236,236)"/></g><g opacity="0.75"><path d=" M 1561.46 1017.927 L 1561.378 1066.016 L 1602.838 1042.156 L 1602.797 993.943 L 1561.46 1017.927 Z " fill="rgb(209,209,209)"/></g><g opacity="0.75"><path d=" M 1561.651 1065.689 L 1602.838 1042.156 L 1644.748 1066.426 L 1602.879 1090.082 L 1561.651 1065.689 Z " fill="rgb(220,220,220)"/></g><path d=" M 1562.592 1018.472 L 1601.378 1040.778 L 1601.61 1088.022 L 1562.551 1065.416 L 1562.551 1020.028 L 1562.592 1018.472 Z  M 1561.296 1017.858 L 1561.296 1066.139 L 1602.892 1090.205 L 1602.647 1040.055 L 1563.875 1017.872 L 1561.296 1017.858 Z " fill="rgb(255,255,255)"/><path d=" M 1602.879 995.225 L 1642.087 1017.872 L 1602.674 1040.082 L 1563.861 1017.845 L 1602.879 995.225 L 1602.879 995.225 Z  M 1602.879 993.766 L 1561.337 1017.858 L 1602.674 1041.528 L 1644.625 1017.886 L 1602.879 993.766 Z " fill="rgb(255,255,255)"/></g></g><g><g><g opacity="0.75"><path d=" M 1508.131 1068.063 L 1508.036 1019.536 L 1466.208 995.512 L 1466.208 1043.806 L 1508.131 1068.063 Z " fill="rgb(235,236,236)"/></g><g opacity="0.75"><path d=" M 1424.871 1019.577 L 1424.776 1067.667 L 1466.249 1043.806 L 1466.208 995.594 L 1424.871 1019.577 Z " fill="rgb(209,209,209)"/></g><g opacity="0.75"><path d=" M 1425.062 1067.34 L 1466.249 1043.806 L 1508.159 1068.09 L 1466.29 1091.733 L 1425.062 1067.34 Z " fill="rgb(220,220,220)"/></g><path d=" M 1426.004 1020.123 L 1464.789 1042.442 L 1465.021 1089.673 L 1425.963 1067.067 L 1425.963 1021.678 L 1426.004 1020.123 Z  M 1424.748 1019.509 L 1424.748 1067.776 L 1466.29 1091.814 L 1466.044 1041.651 L 1427.286 1019.509 L 1424.748 1019.509 Z " fill="rgb(255,255,255)"/><path d=" M 1466.29 996.876 L 1505.498 1019.509 L 1466.085 1041.733 L 1427.272 1019.509 L 1466.29 996.876 L 1466.29 996.876 Z  M 1466.29 995.43 L 1424.748 1019.509 L 1466.085 1043.179 L 1508.036 1019.509 L 1466.29 995.403 L 1466.29 995.43 Z " fill="rgb(255,255,255)"/></g></g><g><g><g opacity="0.75"><path d=" M 1781.977 1068.063 L 1781.882 1019.536 L 1740.054 995.512 L 1740.054 1043.806 L 1781.977 1068.063 Z " fill="rgb(235,236,236)"/></g><g opacity="0.75"><path d=" M 1698.717 1019.577 L 1698.635 1067.667 L 1740.095 1043.806 L 1740.054 995.594 L 1698.717 1019.577 Z " fill="rgb(209,209,209)"/></g><g opacity="0.75"><path d=" M 1698.922 1067.34 L 1740.095 1043.806 L 1782.005 1068.09 L 1740.15 1091.733 L 1698.922 1067.34 Z " fill="rgb(220,220,220)"/></g><path d=" M 1699.85 1020.123 L 1738.635 1042.442 L 1738.867 1089.673 L 1699.809 1067.067 L 1699.809 1021.678 L 1699.85 1020.123 Z  M 1698.554 1019.523 L 1698.554 1067.79 L 1740.15 1091.814 L 1739.89 1041.651 L 1701.132 1019.509 L 1698.554 1019.523 Z " fill="rgb(255,255,255)"/><path d=" M 1740.15 996.876 L 1779.344 1019.509 L 1739.931 1041.719 L 1701.118 1019.509 L 1740.15 996.876 L 1740.15 996.876 Z  M 1740.15 995.43 L 1698.594 1019.509 L 1739.931 1043.179 L 1781.896 1019.509 L 1740.15 995.43 L 1740.15 995.43 Z " fill="rgb(255,255,255)"/></g></g><g><g><g opacity="0.75"><path d=" M 1713.56 1108.226 L 1713.465 1059.7 L 1671.651 1035.676 L 1671.651 1083.97 L 1713.56 1108.226 Z " fill="rgb(235,236,236)"/></g><g opacity="0.75"><path d=" M 1630.3 1059.741 L 1630.218 1107.831 L 1671.691 1083.97 L 1671.651 1035.757 L 1630.3 1059.741 Z " fill="rgb(209,209,209)"/></g><g opacity="0.75"><path d=" M 1630.505 1107.503 L 1671.691 1083.97 L 1713.588 1108.254 L 1671.732 1131.896 L 1630.505 1107.503 Z " fill="rgb(220,220,220)"/></g><path d=" M 1631.446 1060.287 L 1670.218 1082.606 L 1670.464 1129.836 L 1631.392 1107.23 L 1631.392 1061.855 L 1631.446 1060.287 Z  M 1630.136 1059.686 L 1630.136 1107.967 L 1671.732 1132.033 L 1671.473 1081.869 L 1632.728 1059.686 L 1630.136 1059.686 Z " fill="rgb(255,255,255)"/><path d=" M 1671.732 1037.04 L 1710.955 1059.686 L 1671.528 1081.896 L 1632.701 1059.673 L 1671.732 1037.04 L 1671.732 1037.04 Z  M 1671.732 1035.594 L 1630.191 1059.673 L 1671.514 1083.342 L 1713.465 1059.7 L 1671.732 1035.594 Z " fill="rgb(255,255,255)"/></g></g><g><g><g opacity="0.75"><path d=" M 1575.594 1108.226 L 1575.498 1059.7 L 1533.67 1035.676 L 1533.67 1083.97 L 1575.594 1108.226 Z " fill="rgb(235,236,236)"/></g><g opacity="0.75"><path d=" M 1492.32 1059.741 L 1492.238 1107.831 L 1533.711 1083.97 L 1533.67 1035.757 L 1492.32 1059.741 Z " fill="rgb(209,209,209)"/></g><g opacity="0.75"><path d=" M 1492.524 1107.503 L 1533.711 1083.97 L 1575.621 1108.254 L 1533.752 1131.896 L 1492.524 1107.503 Z " fill="rgb(220,220,220)"/></g><path d=" M 1493.466 1060.287 L 1532.238 1082.606 L 1532.47 1129.836 L 1493.411 1107.23 L 1493.411 1061.855 L 1493.466 1060.287 Z  M 1492.156 1059.686 L 1492.156 1107.967 L 1533.752 1132.033 L 1533.507 1081.869 L 1494.748 1059.686 L 1492.156 1059.686 Z " fill="rgb(255,255,255)"/><path d=" M 1533.752 1037.04 L 1572.961 1059.686 L 1533.602 1081.896 L 1494.735 1059.673 L 1533.752 1037.04 L 1533.752 1037.04 Z  M 1533.752 1035.594 L 1492.211 1059.673 L 1533.602 1083.342 L 1575.553 1059.7 L 1533.807 1035.594 L 1533.752 1035.594 Z " fill="rgb(255,255,255)"/></g></g><g><g><g opacity="0.75"><path d=" M 1644.72 1145.061 L 1644.625 1096.535 L 1602.797 1072.51 L 1602.797 1120.805 L 1644.72 1145.061 Z " fill="rgb(235,236,236)"/></g><g opacity="0.75"><path d=" M 1561.46 1096.576 L 1561.378 1144.665 L 1602.838 1120.805 L 1602.797 1072.592 L 1561.46 1096.576 Z " fill="rgb(209,209,209)"/></g><g opacity="0.75"><path d=" M 1561.651 1144.338 L 1602.838 1120.805 L 1644.748 1145.088 L 1602.879 1168.731 L 1561.651 1144.338 Z " fill="rgb(220,220,220)"/></g><path d=" M 1562.592 1097.121 L 1601.378 1119.44 L 1601.61 1166.671 L 1562.551 1144.065 L 1562.551 1098.677 L 1562.592 1097.121 Z  M 1561.296 1096.521 L 1561.296 1144.788 L 1602.892 1168.867 L 1602.647 1118.704 L 1563.888 1096.521 L 1561.296 1096.521 Z " fill="rgb(255,255,255)"/><path d=" M 1602.879 1073.875 L 1642.087 1096.521 L 1602.674 1118.731 L 1563.861 1096.507 L 1602.879 1073.875 L 1602.879 1073.875 Z  M 1602.879 1072.428 L 1561.337 1096.507 L 1602.674 1120.177 L 1644.625 1096.535 L 1602.879 1072.428 Z " fill="rgb(255,255,255)"/></g></g></g><g><path d=" M 1950.885 1165.47 L 2154.909 1284.037 L 2360.679 1165.511 L 2156.273 1046.89 L 1950.885 1165.47 Z " fill="rgb(172,184,191)"/><g opacity="0.8"><path d=" M 1950.435 1086.548 L 2153.831 1204.747 L 2359.328 1086.33 L 2155.114 968.554 L 1950.435 1086.548 Z " fill="rgb(235,236,236)"/></g><g opacity="0.27"><path d=" M 1950.367 1021.924 L 1950.435 1086.548 L 2155.114 968.554 L 2155.114 903.725 L 1950.367 1021.924 Z " fill="rgb(235,236,236)"/></g><g opacity="0.27"><path d=" M 2359.356 1021.706 L 2359.287 1086.33 L 2155.114 968.554 L 2155.114 903.725 L 2359.356 1021.706 Z " fill="rgb(235,236,236)"/></g><path d=" M 2136.232 1144.693 L 2136.232 1183.751 L 2126.219 1177.994 L 2126.219 1138.949 L 2136.232 1144.693 Z " fill="rgb(184,185,185)"/><path d=" M 2113.9 1131.787 L 2122.835 1137.039 L 2122.835 1176.071 L 2113.981 1170.845 L 2113.9 1131.787 Z " fill="rgb(184,185,185)"/><path d=" M 1959.151 1063.956 C 1958.527 1060.457 1960.024 1057.259 1962.492 1056.818 C 1964.96 1056.378 1967.471 1058.86 1968.096 1062.359 C 1968.72 1065.858 1967.223 1069.056 1964.755 1069.496 C 1962.287 1069.937 1959.776 1067.454 1959.151 1063.956 Z " fill="rgb(184,185,185)"/><path d=" M 1978.64 1074.193 C 1978.016 1070.694 1979.513 1067.496 1981.981 1067.056 C 1984.449 1066.615 1986.96 1069.098 1987.585 1072.597 C 1988.209 1076.095 1986.712 1079.293 1984.244 1079.734 C 1981.776 1080.174 1979.265 1077.692 1978.64 1074.193 Z " fill="rgb(184,185,185)"/><g opacity="0.69"><path d=" M 1950.367 1021.924 L 2153.763 1140.123 L 2359.26 1021.706 L 2154.964 903.725 L 1950.367 1021.924 Z " fill="rgb(235,236,236)"/></g><path d=" M 2153.763 1139.181 L 2357.623 1021.706 L 2154.977 904.667 L 1952.004 1021.924 L 2153.763 1139.181 Z " fill-rule="evenodd" fill="none"/><path d=" M 2152.944 1140.6 L 2031.485 1070.014 L 1951.185 1023.356 L 1951.254 1086.071 L 2152.999 1203.315 L 2152.985 1180.764 L 2152.944 1140.6 Z " fill-rule="evenodd" fill="none"/><path d=" M 2154.582 1140.6 L 2154.622 1180 L 2154.65 1203.328 L 2358.51 1085.853 L 2358.442 1023.124 L 2154.582 1140.6 Z " fill-rule="evenodd" fill="none"/><path d=" M 2360.079 1021.706 C 2360.091 1021.615 2360.091 1021.523 2360.079 1021.433 C 2360.085 1021.387 2360.085 1021.342 2360.079 1021.296 C 2360.008 1021.171 2359.904 1021.067 2359.778 1020.996 L 2155.386 903.002 C 2155.126 902.866 2154.815 902.866 2154.554 903.002 L 1949.917 1021.214 C 1949.661 1021.359 1949.504 1021.63 1949.507 1021.924 L 1949.507 1021.924 L 1949.576 1086.548 C 1949.575 1086.838 1949.725 1087.106 1949.971 1087.258 L 2153.408 1205.456 L 2153.408 1205.456 C 2153.534 1205.524 2153.674 1205.562 2153.818 1205.566 C 2153.961 1205.565 2154.102 1205.528 2154.227 1205.456 L 2359.738 1087.04 C 2359.989 1086.885 2360.144 1086.612 2360.147 1086.316 L 2360.079 1021.706 Z  M 2154.964 904.667 L 2357.609 1021.706 L 2153.763 1139.181 L 1952.004 1021.856 L 2154.964 904.667 Z  M 1951.254 1086.112 L 1951.185 1023.356 L 2031.553 1069.986 L 2152.972 1140.573 L 2152.972 1180.736 L 2152.972 1203.287 L 1951.254 1086.112 Z  M 2154.65 1203.369 L 2154.65 1180.04 L 2154.65 1140.641 L 2358.51 1023.165 L 2358.51 1085.921 L 2154.65 1203.369 Z " fill="rgb(255,255,255)"/><path d=" M 2155.919 1110.641 L 2155.864 1124.843 L 2155.919 1110.641 L 2155.919 1110.641 Z " fill-rule="evenodd" fill="none"/><path d=" M 2155.919 1110.641 L 2155.919 1110.641 L 2155.919 1110.641 L 2155.919 1110.641 L 2360.147 991.965 L 2154.568 873.275 L 1949.576 991.733 L 2155.919 1110.641 Z " fill="rgb(238,0,0)"/><path d=" M 2360.147 991.951 L 2360.147 991.965 L 2155.919 1110.641 L 2155.919 1110.641 L 2155.864 1124.843 L 2360.079 1006.153 L 2360.147 991.965 L 2360.147 991.965 L 2360.147 991.951 Z " fill="rgb(163,0,0)"/><path d=" M 2155.919 1110.641 L 1949.576 991.733 L 1949.521 1005.935 L 2155.864 1124.843 L 2155.919 1110.641 L 2155.919 1110.641 Z " fill="rgb(204,0,0)"/></g><path d=" M 1878.88 956.426 L 1878.812 970.601 L 1878.88 956.426 L 1878.88 956.426 Z " fill-rule="evenodd" fill="none"/><path d=" M 1878.88 956.426 L 1878.88 956.426 L 1878.88 956.426 L 1878.88 956.426 L 2082.822 837.9 L 1877.516 719.374 L 1672.81 837.682 L 1878.88 956.426 Z " fill="rgb(238,0,0)"/><path d=" M 2082.822 837.9 L 2082.822 837.9 L 1878.88 956.426 L 1878.88 956.426 L 1878.812 970.601 L 2082.754 852.088 L 2082.822 837.914 L 2082.822 837.914 L 2082.822 837.9 Z " fill="rgb(163,0,0)"/><path d=" M 1878.88 956.426 L 1672.81 837.682 L 1672.756 851.856 L 1878.812 970.601 L 1878.88 956.426 L 1878.88 956.426 Z " fill="rgb(204,0,0)"/><g><path d=" M 2082.754 1321.991 L 1878.621 1440.626 L 1672.756 1322.032 L 1877.257 1203.356 L 2082.754 1321.991 Z " fill="rgb(172,184,191)"/><path d=" M 1878.88 1344.692 L 1878.812 1358.866 L 1878.88 1344.692 L 1878.88 1344.692 Z " fill-rule="evenodd" fill="none"/><path d=" M 1878.88 1344.692 L 1878.88 1344.692 L 1878.88 1344.692 L 1878.88 1344.692 L 2082.822 1226.166 L 1877.516 1107.64 L 1672.81 1225.948 L 1878.88 1344.692 Z " fill="rgb(238,0,0)"/><path d=" M 2082.822 1226.166 L 2082.822 1226.166 L 1878.88 1344.692 L 1878.88 1344.692 L 1878.812 1358.866 L 2082.754 1240.34 L 2082.822 1226.166 L 2082.822 1226.166 L 2082.822 1226.166 Z " fill="rgb(163,0,0)"/><path d=" M 1878.88 1344.692 L 1672.81 1225.948 L 1672.756 1240.122 L 1878.812 1358.866 L 1878.88 1344.692 L 1878.88 1344.692 Z " fill="rgb(204,0,0)"/><g><g style="opacity:0.28;"><g opacity="0.28"><path d=" M 1874.951 1196.862 C 1874.719 1198.349 1806.234 1211.391 1760.354 1222.373 C 1704.242 1235.811 1720.013 1258.539 1776.125 1254.829 C 1790.313 1253.887 1792.81 1253.901 1802.046 1255.415 C 1808.089 1256.411 1819.031 1260.668 1842.427 1260.668 C 1886.766 1260.668 1890.954 1250.477 1890.954 1250.477 C 1891.506 1249.166 1891.891 1247.791 1892.1 1246.384 C 1895.906 1246.602 1899.999 1246.766 1904.31 1246.875 L 1983.614 1196.643 C 1942.877 1194.433 1880.408 1197.148 1874.951 1196.862 Z " fill="rgb(112,112,112)"/></g><g opacity="0.28"><path d=" M 2013.6 1200.532 C 2007.529 1198.553 1996.697 1197.353 1983.655 1196.643 L 1904.351 1246.875 C 1907.461 1246.875 1910.681 1246.998 1914.091 1246.998 C 1971.049 1246.998 1986.874 1236.384 1991.281 1230.736 C 2007.57 1229.754 2025.141 1226.411 2035.864 1217.23 C 2046.587 1208.049 2022.877 1202.851 2013.6 1200.532 Z " fill="rgb(112,112,112)"/></g></g><linearGradient id="_lgradient_0" x1="0" y1="0.5" x2="1" y2="0.5" gradientTransform="matrix(136.989,0,0,92.469,1904.112,1128.758)" gradientUnits="userSpaceOnUse"><stop offset="0%" stop-opacity="1" style="stop-color:rgb(255,255,255)"/><stop offset="32.99068782307899%" stop-opacity="1" style="stop-color:rgb(247,247,247)"/><stop offset="83.999097629392%" stop-opacity="1" style="stop-color:rgb(224,224,224)"/><stop offset="91.000251916533%" stop-opacity="1" style="stop-color:rgb(220,220,220)"/></linearGradient><path d=" M 2039.098 1206.903 C 2041.826 1200.572 2041.185 1194.406 2040.53 1187.298 C 2038.607 1166.63 2015.428 1135.852 1984.719 1130.123 C 1979.905 1129.222 1975.019 1128.765 1970.121 1128.758 C 1932.4 1128.758 1906.847 1158.199 1904.637 1187.271 C 1904.092 1194.392 1903.341 1201.255 1906.07 1207.585 C 1906.07 1207.585 1907.966 1221.227 1970.585 1221.227 C 2033.204 1221.227 2039.098 1206.903 2039.098 1206.903 Z " fill="url(#_lgradient_0)"/><linearGradient id="_lgradient_1" x1="0" y1="0.5" x2="1" y2="0.5" gradientTransform="matrix(179.985,0,0,141.57,1823.11,1096.083)" gradientUnits="userSpaceOnUse"><stop offset="0%" stop-opacity="1" style="stop-color:rgb(255,255,255)"/><stop offset="32.99987154299188%" stop-opacity="1" style="stop-color:rgb(247,247,247)"/><stop offset="83.99993583116225%" stop-opacity="1" style="stop-color:rgb(224,224,224)"/><stop offset="90.99994465502877%" stop-opacity="1" style="stop-color:rgb(220,220,220)"/></linearGradient><path d=" M 1997.515 1216.698 C 2001.219 1206.756 2003.109 1196.23 2003.095 1185.62 C 2003.017 1143.445 1973.559 1107.024 1932.332 1098.131 C 1926.015 1096.768 1919.571 1096.082 1913.109 1096.085 C 1883.727 1095.924 1856.137 1110.194 1839.288 1134.266 C 1822.439 1158.338 1818.478 1189.146 1828.689 1216.698 C 1828.689 1216.698 1831.172 1237.653 1913.696 1237.653 C 1996.219 1237.653 1997.515 1216.698 1997.515 1216.698 Z " fill="url(#_lgradient_1)"/><linearGradient id="_lgradient_2" x1="0" y1="0.5" x2="1" y2="0.5" gradientTransform="matrix(108.929,0,0,86.117,1764.743,1148.303)" gradientUnits="userSpaceOnUse"><stop offset="0.003545956660010007%" stop-opacity="1" style="stop-color:rgb(255,255,255)"/><stop offset="33.001205610962195%" stop-opacity="1" style="stop-color:rgb(247,247,247)"/><stop offset="83.99758871306557%" stop-opacity="1" style="stop-color:rgb(224,224,224)"/><stop offset="90.99709227609937%" stop-opacity="1" style="stop-color:rgb(220,220,220)"/></linearGradient><path d=" M 1870.299 1221.623 C 1878.653 1198.992 1871.124 1173.563 1851.796 1159.128 C 1832.468 1144.694 1805.948 1144.694 1786.62 1159.128 C 1767.292 1173.563 1759.763 1198.992 1768.117 1221.623 C 1768.117 1221.623 1769.617 1234.42 1819.563 1234.42 C 1869.508 1234.42 1870.299 1221.623 1870.299 1221.623 Z " fill="url(#_lgradient_2)"/><linearGradient id="_lgradient_3" x1="0" y1="0.5" x2="1" y2="0.5" gradientTransform="matrix(79.113,0,0,53.56,1725.566,1195.989)" gradientUnits="userSpaceOnUse"><stop offset="0.01724435249999586%" stop-opacity="1" style="stop-color:rgb(255,255,255)"/><stop offset="33.011553716174994%" stop-opacity="1" style="stop-color:rgb(247,247,247)"/><stop offset="84.0027590964%" stop-opacity="1" style="stop-color:rgb(224,224,224)"/><stop offset="91.00155199172501%" stop-opacity="1" style="stop-color:rgb(220,220,220)"/></linearGradient><path d=" M 1802.223 1241.623 C 1803.837 1237.912 1804.673 1233.91 1804.679 1229.863 C 1804.679 1213.642 1791.364 1200.081 1773.574 1196.766 C 1770.789 1196.249 1767.962 1195.989 1765.129 1195.989 C 1743.301 1195.989 1725.566 1211.159 1725.566 1229.863 C 1725.571 1233.91 1726.407 1237.912 1728.021 1241.623 C 1728.021 1241.623 1729.113 1249.549 1765.375 1249.549 C 1801.636 1249.549 1802.223 1241.623 1802.223 1241.623 Z " fill="url(#_lgradient_3)"/><linearGradient id="_lgradient_4" x1="0" y1="0.5" x2="1" y2="0.5" gradientTransform="matrix(103.106,0,0,69.618,1787.542,1182.523)" gradientUnits="userSpaceOnUse"><stop offset="0.00151021424998428%" stop-opacity="1" style="stop-color:rgb(255,255,255)"/><stop offset="33.00279780354749%" stop-opacity="1" style="stop-color:rgb(247,247,247)"/><stop offset="84.00478771428%" stop-opacity="1" style="stop-color:rgb(224,224,224)"/><stop offset="91.00506083928249%" stop-opacity="1" style="stop-color:rgb(220,220,220)"/></linearGradient><path d=" M 1889.139 1241.309 C 1891.199 1236.548 1890.708 1231.896 1890.217 1226.548 C 1888.771 1211.009 1871.322 1187.844 1848.212 1183.533 C 1844.591 1182.854 1840.914 1182.516 1837.23 1182.523 C 1808.84 1182.523 1789.617 1204.679 1787.939 1226.548 C 1787.53 1231.909 1786.957 1237.066 1789.017 1241.841 C 1789.017 1241.841 1790.381 1252.141 1837.571 1252.141 C 1884.76 1252.141 1889.139 1241.309 1889.139 1241.309 Z " fill="url(#_lgradient_4)"/><path d=" M 2040.53 1187.312 C 2038.607 1166.644 2015.428 1135.866 1984.719 1130.136 L 1983.573 1129.959 C 1970.658 1113.779 1952.561 1102.543 1932.332 1098.145 C 1926.015 1096.782 1919.571 1096.096 1913.109 1096.098 C 1877.604 1096.068 1845.397 1116.906 1830.872 1149.304 L 1830.872 1149.304 C 1815.873 1146.026 1800.188 1149.236 1787.682 1158.143 C 1775.177 1167.05 1767.016 1180.824 1765.211 1196.07 L 1765.211 1196.07 C 1743.383 1196.07 1725.648 1211.241 1725.648 1229.945 C 1725.653 1233.991 1726.489 1237.994 1728.103 1241.705 C 1728.103 1241.705 1729.195 1249.631 1765.456 1249.631 C 1780.559 1249.631 1789.467 1248.267 1794.72 1246.643 C 1800.654 1249.372 1812.782 1252.223 1837.639 1252.223 C 1884.76 1252.223 1889.208 1241.391 1889.208 1241.391 C 1889.802 1240.014 1890.21 1238.564 1890.422 1237.08 C 1897.407 1237.503 1905.115 1237.735 1913.764 1237.735 C 1974.282 1237.735 1991.103 1226.466 1995.783 1220.463 C 2034.937 1217.285 2039.166 1206.984 2039.166 1206.984 C 2041.826 1200.572 2041.185 1194.406 2040.53 1187.312 Z " fill-rule="evenodd" fill="none"/><path d=" M 2040.53 1187.312 C 2038.607 1166.644 2015.428 1135.866 1984.719 1130.136 L 1983.573 1129.959 C 1970.658 1113.779 1952.561 1102.543 1932.332 1098.145 C 1926.015 1096.782 1919.571 1096.096 1913.109 1096.098 C 1877.604 1096.068 1845.397 1116.906 1830.872 1149.304 L 1830.872 1149.304 C 1815.873 1146.026 1800.188 1149.236 1787.682 1158.143 C 1775.177 1167.05 1767.016 1180.824 1765.211 1196.07 L 1765.211 1196.07 C 1743.383 1196.07 1725.648 1211.241 1725.648 1229.945 C 1725.653 1233.991 1726.489 1237.994 1728.103 1241.705 C 1728.103 1241.705 1729.195 1249.631 1765.456 1249.631 C 1780.559 1249.631 1789.467 1248.267 1794.72 1246.643 C 1800.654 1249.372 1812.782 1252.223 1837.639 1252.223 C 1884.76 1252.223 1889.208 1241.391 1889.208 1241.391 C 1889.802 1240.014 1890.21 1238.564 1890.422 1237.08 C 1897.407 1237.503 1905.115 1237.735 1913.764 1237.735 C 1974.282 1237.735 1991.103 1226.466 1995.783 1220.463 C 2034.937 1217.285 2039.166 1206.984 2039.166 1206.984 C 2041.826 1200.572 2041.185 1194.406 2040.53 1187.312 Z " fill-rule="evenodd" fill="none"/></g></g></g></g></g></svg>